<svg xmlns="http://www.w3.org/2000/svg" width="90" height="28.8" viewBox="0 0 90 28.8"><defs><style>.a{fill:#29064c;}.b{fill:#06f;}</style></defs><g transform="translate(-169.877 -148.543)"><path class="a" d="M266.944,154.218H257.3v5.566h9.166v5.609H257.3v6.387h9.641v5.609h-16.3v-28.78h16.3Z" transform="translate(-56.557 -0.046)"/><path class="a" d="M314.128,179.27h6.226v2.292a7.039,7.039,0,0,1,5.966-2.81,6.8,6.8,0,0,1,7.479,7.609v12.192h-6.225v-9.9c0-1.253-.043-2.853-1.037-3.848a3.267,3.267,0,0,0-2.378-.864,3.383,3.383,0,0,0-2.594,1.038,4.934,4.934,0,0,0-1.21,3.674v9.9h-6.226Z" transform="translate(-101.011 -21.209)"/><rect class="a" width="6.226" height="28.8" transform="translate(235.582 148.543)"/><rect class="a" width="6.226" height="19.282" transform="translate(244.616 158.061)"/><rect class="a" width="6.226" height="28.8" transform="translate(253.651 148.543)"/><path class="a" d="M421.111,148.544a3.632,3.632,0,1,1-3.631,3.632,3.6,3.6,0,0,1,3.631-3.632" transform="translate(-173.383 -0.001)"/><path class="b" d="M185.123,150.938l-1.206,7.489a.216.216,0,0,1-.375.109l-3.56-4.009a.216.216,0,0,1,.034-.318l4.766-3.48a.216.216,0,0,1,.341.209m-9.461.315,5,5.634a.216.216,0,0,1-.152.359l-5,.216a.216.216,0,0,1-.225-.216V151.4a.216.216,0,0,1,.378-.144m-5.577,7.5,7.364-.317a.216.216,0,0,1,.184.344l-2.8,3.823a.216.216,0,0,1-.306.044l-4.566-3.506a.216.216,0,0,1,.122-.388m2.4,8.85,4.127-5.638a.216.216,0,0,1,.383.071l1.149,4.207a.217.217,0,0,1-.152.266l-5.275,1.431a.216.216,0,0,1-.231-.336m8.177,3.855-1.87-6.847a.216.216,0,0,1,.295-.255l4.193,1.825a.217.217,0,0,1,.11.29l-2.324,5.022a.216.216,0,0,1-.4-.034m8.315-3.948-6.592-2.871a.216.216,0,0,1-.017-.387l4.248-2.335a.217.217,0,0,1,.3.1l2.344,5.206a.216.216,0,0,1-.284.287m-4.48-6.033.728-4.524a.217.217,0,0,1,.258-.177l5.4,1.153a.216.216,0,0,1,.059.4l-6.133,3.371a.216.216,0,0,1-.318-.224" transform="translate(0 -1.501)"/></g></svg>